<?xml version="1.0" standalone="no"?>
<!DOCTYPE svg PUBLIC "-//W3C//DTD SVG 20010904//EN"
 "http://www.w3.org/TR/2001/REC-SVG-20010904/DTD/svg10.dtd">
<svg version="1.0" xmlns="http://www.w3.org/2000/svg"
 width="154.000000pt" height="154.000000pt" viewBox="0 0 154.000000 154.000000"
 preserveAspectRatio="xMidYMid meet">

<g transform="translate(0.000000,154.000000) scale(0.100000,-0.100000)"
fill="#000000" stroke="none">
<path d="M85 1521 c-11 -5 -31 -21 -45 -36 l-25 -27 -3 -679 c-3 -747 -5 -722
58 -754 44 -23 1356 -23 1400 0 62 32 60 8 60 750 l0 675 -34 38 -34 37 -679
2 c-373 1 -687 -2 -698 -6z m1025 -247 c30 -14 72 -42 94 -62 46 -44 92 -136
101 -202 8 -62 -16 -159 -55 -220 -16 -25 -132 -147 -257 -271 -198 -196 -237
-230 -298 -260 -60 -29 -79 -34 -145 -33 -92 0 -148 23 -220 90 -73 68 -105
140 -105 234 1 132 17 156 303 443 248 250 291 285 379 307 56 13 140 3 203
-26z"/>
<path d="M900 1241 c-56 -18 -90 -45 -200 -155 l-115 -116 195 -195 195 -195
107 107 c139 138 163 181 163 288 0 90 -14 126 -74 188 -52 55 -104 79 -181
83 -36 2 -76 0 -90 -5z"/>
<path d="M429 813 c-90 -92 -119 -128 -132 -165 -9 -27 -13 -48 -9 -48 4 0 72
65 152 145 l145 145 -21 20 -20 21 -115 -118z"/>
</g>
</svg>
